<svg id="visual" viewBox="0 0 900 600" width="900" height="600" xmlns="http://www.w3.org/2000/svg" xmlns:xlink="http://www.w3.org/1999/xlink" version="1.1"><rect x="0" y="0" width="900" height="600" fill="#e1eedd"></rect><defs><linearGradient id="grad1_0" x1="33.3%" y1="0%" x2="100%" y2="100%"><stop offset="20%" stop-color="#e1eedd" stop-opacity="1"></stop><stop offset="80%" stop-color="#e1eedd" stop-opacity="1"></stop></linearGradient></defs><defs><linearGradient id="grad2_0" x1="0%" y1="0%" x2="66.7%" y2="100%"><stop offset="20%" stop-color="#e1eedd" stop-opacity="1"></stop><stop offset="80%" stop-color="#e1eedd" stop-opacity="1"></stop></linearGradient></defs><g transform="translate(900, 0)"><path d="M0 216.3C-11.1 208.6 -22.2 200.8 -35.4 200.9C-48.7 201 -64.1 209 -74 203.3C-83.9 197.6 -88.4 178.2 -98 169.7C-107.6 161.3 -122.3 163.9 -134.3 160.1C-146.3 156.3 -155.6 146.2 -160.1 134.3C-164.6 122.5 -164.3 108.9 -170.6 98.5C-176.9 88.1 -189.8 81 -194.5 70.8C-199.2 60.6 -195.7 47.2 -197.9 34.9C-200.2 22.6 -208.3 11.3 -216.3 0L0 0Z" fill="#fe5d26"></path></g><g transform="translate(0, 600)"><path d="M0 -216.3C10.4 -204.5 20.9 -192.6 34 -193C47.2 -193.4 63.1 -206.1 74 -203.3C84.9 -200.5 90.9 -182.2 99 -171.5C107.1 -160.8 117.2 -157.7 129.2 -154C141.2 -150.3 155.1 -146 163.2 -136.9C171.2 -127.9 173.3 -114 175.8 -101.5C178.3 -89 181.2 -77.7 183.2 -66.7C185.3 -55.7 186.7 -44.9 192 -33.9C197.4 -22.8 206.9 -11.4 216.3 0L0 0Z" fill="#fe5d26"></path></g></svg>